<svg width="714" height="1257" viewBox="0 0 714 1257" fill="none" xmlns="http://www.w3.org/2000/svg">
<path d="M712.627 1198.64V57.7635C712.627 26.2833 687.107 0.76355 655.627 0.76355H58.3965C26.9163 0.76355 1.39648 26.2833 1.39648 57.7636V1198.64C1.39648 1230.12 26.9163 1255.64 58.3965 1255.64H61.4537C67.6333 1255.64 73.7718 1254.63 79.6289 1252.66L115.56 1240.58C121.417 1238.61 127.555 1237.6 133.735 1237.6H163.126C168.918 1237.6 174.676 1238.48 180.202 1240.22L220.975 1253.02C226.501 1254.76 232.259 1255.64 238.051 1255.64H287.464C293.431 1255.64 299.255 1253.81 304.149 1250.39L311.196 1245.48C317.858 1240.83 326.811 1241.23 333.028 1246.46C339.418 1251.84 348.669 1252.1 355.351 1247.09L356.947 1245.9C363.637 1240.88 372.702 1240.44 379.845 1244.78L389.016 1250.36C394.703 1253.81 401.23 1255.64 407.885 1255.64H468.465C473.975 1255.64 479.456 1254.84 484.736 1253.27L529.37 1239.97C534.651 1238.4 540.132 1237.6 545.642 1237.6H570.722C577.893 1237.6 585 1238.95 591.67 1241.59L617.132 1251.65C623.801 1254.29 630.908 1255.64 638.079 1255.64H655.627C687.107 1255.64 712.627 1230.12 712.627 1198.64Z" fill="#B67222" stroke="black"/>
</svg>
