<svg width="209" height="376" viewBox="0 0 209 376" fill="none" xmlns="http://www.w3.org/2000/svg">
<path d="M9.47188 195.24C7.5175 201.27 33.9496 213.777 47.41 219.277C71.0925 229.29 130.663 223.923 157.488 219.988C164.194 218.234 180.912 212.279 194.133 202.494C207.353 192.708 204.719 188.745 201.749 187.986C212.556 177.063 208.934 173.668 205.773 173.336C211.406 162.299 203.809 160.868 199.306 161.531C199.306 136.499 182.54 117.63 174.158 111.324C180.193 29.826 158.206 -2.03351 136.938 0.0999459C119.923 1.80671 116.628 56.6601 117.107 83.8735C110.899 81.2565 96.5091 82.7831 90.0903 83.8735C92.0064 56.6601 88.8832 1.80671 61.0619 0.0999459C25.0782 20.0122 28.3451 82.5461 34.4765 111.324C16.7721 124.523 10.4299 150.295 9.47188 161.531C0.619656 160.052 1.47234 168.69 3.00522 173.194C-5.27218 176.266 5.4961 187.559 11.9149 192.822C11.1006 192.775 9.47188 193.192 9.47188 195.24Z" fill="white"/>
<ellipse cx="78.9944" cy="158.336" rx="5.99442" ry="8.33639" fill="#290D0D"/>
<ellipse cx="132.994" cy="158.336" rx="5.99442" ry="8.33639" fill="#290D0D"/>
<path d="M42.9468 242.025V205L165.577 208.21L172.928 256.792C176.394 259.931 183.936 269.976 186.374 285.043C189.422 303.876 180.816 330.414 179.74 335.551C178.88 339.66 190.139 343.969 195.876 345.61C202.689 350.175 214.306 361.618 206.274 370.864C196.234 382.421 159.84 370.864 146.931 370.864C136.605 370.864 129.601 361.447 127.389 356.738H79.3414C78.3852 360.662 74.7875 368.98 68.0465 370.864C59.6201 373.218 13.0063 381.992 8.52421 368.509C4.04211 355.026 29.6798 342.399 33.0861 337.477C36.4925 332.554 30.2176 303.662 29.6797 278.836C29.2495 258.975 38.3451 246.02 42.9468 242.025Z" fill="white"/>
<ellipse cx="108" cy="180.5" rx="8" ry="4.5" fill="#F2C3C3"/>
<path d="M44 57.5454C43.9998 68.9997 45 91.8788 47 102.045C52.0003 104.045 75.5 88.9973 76.5 84.4973C77.5 79.9973 69 9 61 11C53 13 44.0003 42.0455 44 57.5454Z" fill="#FFCBCB"/>
<path d="M44 57.5454C43.9998 68.9997 45 91.8788 47 102.045C52.0003 104.045 75.5 88.9973 76.5 84.4973C77.5 79.9973 69 9 61 11C53 13 44.0003 42.0455 44 57.5454Z" fill="#FFCBCB"/>
<path d="M44 57.5454C43.9998 68.9997 45 91.8788 47 102.045C52.0003 104.045 75.5 88.9973 76.5 84.4973C77.5 79.9973 69 9 61 11C53 13 44.0003 42.0455 44 57.5454Z" fill="#FFCBCB"/>
<path d="M44 57.5454C43.9998 68.9997 45 91.8788 47 102.045C52.0003 104.045 75.5 88.9973 76.5 84.4973C77.5 79.9973 69 9 61 11C53 13 44.0003 42.0455 44 57.5454Z" fill="#FFE9E9"/>
<path d="M161.425 54.6359C162.715 66.0173 164.346 91.1741 163.504 101.501C158.761 104.052 131.504 88.8601 130.004 84.5014C128.503 80.1426 132.326 6.41378 140.5 7.5C148.674 8.58622 159.679 39.2346 161.425 54.6359Z" fill="#FFCBCB"/>
<path d="M161.425 54.6359C162.715 66.0173 164.346 91.1741 163.504 101.501C158.761 104.052 131.504 88.8601 130.004 84.5014C128.503 80.1426 132.326 6.41378 140.5 7.5C148.674 8.58622 159.679 39.2346 161.425 54.6359Z" fill="#FFCBCB"/>
<path d="M161.425 54.6359C162.715 66.0173 164.346 91.1741 163.504 101.501C158.761 104.052 131.504 88.8601 130.004 84.5014C128.503 80.1426 132.326 6.41378 140.5 7.5C148.674 8.58622 159.679 39.2346 161.425 54.6359Z" fill="#FFCBCB"/>
<path d="M161.425 54.6359C162.715 66.0173 164.346 91.1741 163.504 101.501C158.761 104.052 131.504 88.8601 130.004 84.5014C128.503 80.1426 132.326 6.41378 140.5 7.5C148.674 8.58622 159.679 39.2346 161.425 54.6359Z" fill="#FFE9E9"/>
<path d="M145.086 228C125.831 241.932 78.712 234.283 63.3709 228C53.0392 237.015 63.5305 301.978 69.1659 313.862C80.4357 337.629 95.0281 348 103.482 348C111.803 348 133.815 343.553 138.041 334.538C147.433 314.503 148.373 300.118 147.904 276.352C147.528 257.339 148.06 236.468 145.086 228Z" fill="#F7F7F7"/>
<path d="M122.847 307.545C124.614 302.681 127.203 291.896 128.277 287.111C131.172 276.464 144.317 266.058 153.343 257.446C157.771 255.646 161.044 264.657 161.046 269.803C161.049 276.235 158.913 284.273 156.907 293.308C154.902 302.343 146.222 318.143 141.615 323.589C137.007 329.036 123.578 332.661 121.23 328.612C118.883 324.563 120.639 313.624 122.847 307.545Z" fill="white"/>
<path d="M60.8312 305.791C59.8036 294.099 54.5156 266.2 52 253.712C58.4227 248.566 92.7007 272.567 91.2556 285.536C89.8105 298.504 94.1458 320.942 92.7007 327.735C91.2556 334.528 76.6439 331.852 71.5058 328.97C66.3676 326.088 62.1158 320.407 60.8312 305.791Z" fill="white"/>
</svg>
