<svg width="308" height="399" viewBox="0 0 308 399" fill="none" xmlns="http://www.w3.org/2000/svg">
<path d="M273.965 293.147C263.825 323.124 228.258 313.189 214.623 308.832L197.915 334.975C202.716 338.751 215.631 350.618 248.615 343.689C290.097 334.975 293.554 307.09 301.043 280.947C306.034 263.526 309.109 241.741 306.229 222.57C305.967 220.827 298.739 191.194 279.15 175.505C278.132 174.69 236.516 140.648 239.973 164.177C242.801 183.426 278.574 200.775 283.183 219.075C287.792 237.375 286.64 255.676 273.965 293.147Z" fill="#F6BE6B"/>
<path d="M30.0155 65.8956C28.4841 45.7111 27.9941 4.34275 38.2852 0.345051C48.5763 -3.65265 71.9765 28.0742 82.3902 44.4374C100.563 44.4374 139.788 45.6132 151.304 50.3163C169.477 35.8149 208.579 8.81077 219.605 16.8062C233.388 26.8004 208.579 79.9541 219.605 98.4728C221.905 102.336 222.849 108.03 223.012 114C223.085 116.658 229.461 117.785 229.339 119.5C229.274 120.411 227.353 122.02 225.539 123.567L222.331 127C222.042 129.366 228.715 133.074 228.339 135L216.839 142C213.08 148.905 206.258 162.507 200.003 169.66C206.843 181.711 222.3 208.284 229.406 218.161C238.288 230.507 256.053 254.317 252.684 286.357C249.314 318.398 243.495 348.086 225.424 362.784C207.354 377.481 208.885 390.121 169.987 389.239C131.089 388.357 42.5733 385.124 23.5838 368.075C4.59425 351.026 0 330.45 0 300.761C0 271.072 4.68785 238.884 8.59595 224.387C12.4164 210.215 33.2245 172.998 33.4287 164.865C32.8528 161.77 32.8379 154.716 31.7254 147C31.4407 145.025 21.7953 144.007 21.3389 142C21.0612 140.779 22.8629 139.335 24.7174 137.897L28.3389 133.5C26.6832 129.368 18.531 125.57 18.3389 124C17.8226 119.782 24.3389 117.036 24.3389 113C24.3389 96.8303 26.7486 74.0282 30.0155 65.8956Z" fill="#E7AA4F"/>
<path d="M131.904 369.412C136.546 364.608 144.221 353.33 147.478 348.291C155.722 337.317 184.121 331.45 203.969 325.721C213.13 325.721 206.412 336.737 205.191 342.701C203.664 350.155 198.778 357.195 192.671 366.72C186.564 376.245 175.471 392.701 165.088 396.842C154.706 400.983 127.362 398.86 123.697 393.062C120.033 387.265 126.103 375.417 131.904 369.412Z" fill="#F7BE6B"/>
<path d="M60.6579 374.093C58.7124 363.391 48.701 337.853 43.9385 326.422C56.0981 321.711 113.552 341.872 110.816 353.743C108.08 365.614 116.288 386.152 113.552 392.37C110.816 398.588 83.1532 396.139 73.4255 393.501C63.7068 390.865 63.091 387.477 60.6647 374.13L60.6579 374.093Z" fill="#F7BE6B"/>
<path d="M89.1847 143.179C84.5018 125.839 104.68 117.98 115.354 116.218C126.143 116.218 149.787 119.39 158.051 132.078C168.381 147.937 147.028 157.453 137.391 160.097C128.897 162.427 95.0384 164.854 89.1847 143.179Z" fill="#F6BE6B"/>
<ellipse cx="94.7777" cy="114.399" rx="6.28652" ry="7.62919" fill="#290D0D"/>
<ellipse cx="150.916" cy="114.399" rx="6.28652" ry="7.62919" fill="#290D0D"/>
<path d="M129.12 132.235C127.811 131.169 117.939 130.755 117.121 132.679C116.303 134.603 121.621 138.895 123.257 138.895C124.893 138.895 130.757 133.567 129.12 132.235Z" fill="#F09797"/>
<path d="M39.4881 21.2592C36.0626 22.393 38.0608 45.9831 39.4881 57.6363C44.246 58.5811 58.9937 50.0775 59.9452 47.2429C60.8967 44.4083 43.7699 19.8419 39.4881 21.2592Z" fill="#E9ACAC"/>
<path d="M208.115 31.2524C212.046 32.6316 209.753 61.3258 208.115 75.5005C202.654 76.6497 185.73 66.3061 184.638 62.8582C183.546 59.4103 203.201 29.5285 208.115 31.2524Z" fill="#E9ACAC"/>
<path d="M99.4892 85.6624C93.8926 83.2399 96.4028 57.6339 98.7348 45.3535L107.49 45.7932C107.257 60.0923 105.086 88.0848 99.4892 85.6624Z" fill="#F6BE6B"/>
<path d="M116.28 89.6998C106.765 91.3147 108.195 61.1016 112.159 45.7932L127.919 46.6726C128.152 60.6352 125.794 88.0848 116.28 89.6998Z" fill="#F6BE6B"/>
<path d="M134.469 85.6624C128.313 85.6624 131.775 60.402 134.34 47.1123L143.679 47.9916C142.98 61.2814 140.625 85.6624 134.469 85.6624Z" fill="#F6BE6B"/>
<path d="M75.3797 206.585C73.1026 193.944 89.9278 188.757 98.6251 187.744C109.569 185.009 141.367 186.288 146.064 187.744C160.771 192.302 162.194 199.9 165.04 206.585C167.887 213.271 158.399 245.786 154.129 254.599C149.86 263.411 130.884 275.263 117.601 275.871C104.318 276.478 90.56 267.362 82.9697 260.069C75.3793 252.775 78.2261 222.387 75.3797 206.585Z" fill="#F6BE6B"/>
</svg>
