<svg width="311" height="389" viewBox="0 0 311 389" fill="none" xmlns="http://www.w3.org/2000/svg">
<path d="M33.9908 64.7545C43.0931 61.5577 50.7867 63.4225 53.4957 64.7545C49.1613 62.2955 46.7232 43.8525 46.1814 37.0902C45.6396 30.3278 58.6429 -3.48405 72.188 5.42998C73.4883 16.4957 80.4956 31.1475 83.8367 37.0902C138 23 184.5 27.8688 206.013 37.0902C208.271 32.8893 213.165 23.3195 214.682 18.6473C216.578 12.8071 217.662 3.27832 223.351 3.27832C226.873 5.32752 235.542 13.1145 242.043 27.8688C248.545 42.623 241.863 58.197 237.709 64.1396C242.946 64.3446 254.45 64.6315 258.568 64.1396C263.715 63.5249 284.154 64.7545 295.596 62.6142C323.577 57.3805 308.469 88.8423 289.463 112.205C279.06 124.993 281.77 127.299 260.281 130.476C264.344 152.3 269.22 173.989 260.281 190.28C253.129 203.313 240.057 217.432 230.123 222.862C238.576 251.387 237.799 287.822 236.354 302.474C239.695 299.81 248.653 296.08 257.755 302.474C269.133 310.466 257.485 343.048 246.378 367.024C237.492 386.204 215.946 382.188 206.284 377.782C202.13 382.7 189.759 391.676 173.505 388.233C157.251 384.79 156.438 372.659 158.064 367.024C151.779 370.467 139.372 368.458 133.953 367.024C135.85 374.401 133.953 383.93 118.241 388.233C105.671 391.676 91.1511 382.7 85.4621 377.782C81.0374 379.626 70.7251 382.639 64.8736 379.934C30.1982 365.18 28.3019 310.466 38.3253 301.859C46.344 294.974 55.5727 301.859 59.1847 306.163C54.6336 290.179 61.081 245.609 64.8736 225.322C61.3519 225.629 52.4005 222.928 39.6681 198.645C29.4822 179.219 31.2818 167.424 33.9908 154.617C37.6647 144.236 41.3036 131.705 36.5357 130.476C30.5759 128.939 9.71646 119.41 3.21482 100.66C-3.28681 81.9098 1.86032 67.7703 3.21482 61.93C4.56933 56.0898 22.613 68.7504 33.9908 64.7545Z" fill="#CDA791"/>
<path d="M83.9111 227.281C85.7798 227.872 86.742 228.41 87.5059 229.104C104.556 236.548 137.163 236.16 173.067 229.04C169.292 230.805 162.229 238.419 160.259 245.304C157.797 253.91 146.472 263.178 133.177 259.206C119.881 255.234 119.881 263.178 113.48 271.784C107.079 280.39 97.7227 268.474 95.2606 263.178C92.7985 257.882 105.601 244.642 95.2606 236.698C89.7581 232.471 89.0233 230.482 87.5059 229.104C86.217 228.541 85.0169 227.934 83.9111 227.281Z" fill="#804E4E"/>
<ellipse cx="144.461" cy="173.192" rx="56.7354" ry="34.4199" fill="#F9BCBC"/>
<ellipse cx="93.72" cy="125.255" rx="5.99442" ry="8.33639" fill="#290D0D"/>
<ellipse cx="201.469" cy="125.255" rx="5.99442" ry="8.33639" fill="#290D0D"/>
<path d="M132.262 161.02C131.707 156.349 128.097 159.074 126.362 161.02C126.015 161.604 125.251 163.355 124.974 165.691C124.627 168.61 125.841 172.113 126.709 173.281C127.577 174.448 130.18 173.281 131.221 170.945C132.262 168.61 132.956 166.858 132.262 161.02Z" fill="black"/>
<path d="M166.589 171.16C166.034 175.831 162.424 173.106 160.689 171.16C160.342 170.576 159.579 168.825 159.301 166.489C158.954 163.57 160.169 160.067 161.036 158.899C161.904 157.731 164.507 158.899 165.548 161.235C166.589 163.57 167.283 165.321 166.589 171.16Z" fill="black"/>
<path d="M43.8868 36.4283C43.4622 46.7099 48.6637 59.4062 51.3176 64.4691C63.6311 64.4691 79.4484 45.7752 85.8179 36.4283C69.3641 3.12988 83.6949 9.55582 72.0179 1.37725C60.341 -6.80132 44.4176 23.5762 43.8868 36.4283Z" fill="#D2D2D2"/>
<path d="M245.988 36.4283C246.413 46.7099 241.211 59.4062 238.557 64.4691C226.244 64.4691 210.427 45.7752 204.057 36.4283C220.511 3.12988 206.18 9.55582 217.857 1.37725C229.534 -6.80132 245.457 23.5762 245.988 36.4283Z" fill="#D2D2D2"/>
<path d="M226.942 340.922C230.756 336.551 234.57 312.511 236.001 301.038C236.974 294.045 237.359 274.813 236.953 265.525C223.605 248.042 219.313 270.989 212.639 276.452C205.965 281.916 212.639 290.658 207.395 297.214C202.15 303.77 184.986 297.76 185.463 311.965C185.94 326.17 211.685 319.614 212.639 325.624C213.593 331.634 204.057 338.19 207.395 344.746C210.732 351.302 222.174 346.385 226.942 340.922Z" fill="#804E4E"/>
<path d="M14.5003 90C12.9003 103.6 31.5003 116 41.0003 120.5C44.5005 124.5 49.5 99.5 45 100.5C41.4 101.3 23.1668 93.8333 14.5003 90Z" fill="#F9BCBC"/>
<path d="M291.287 86C292.887 99.6 274.287 112 264.787 116.5C261.287 120.5 256.287 95.5 260.787 96.5C264.387 97.3 282.62 89.8333 291.287 86Z" fill="#F9BCBC"/>
<path d="M33.5 83.9997C21.5 85.1997 13.3333 69 11.5 61.5C16 63.5001 24 62.9997 29.5 62.9997C34.217 62.9997 49.5 61.5 51.5 62.9997C59.9 68.1995 77.3333 47.1664 85 35.9998C105.4 29.5999 141.167 28.6665 156.5 28.9998C153.667 30.9998 146.8 34.7997 142 33.9997C136 32.9997 132.5 36.4997 127 43.9997C121.5 51.4997 146.5 50 148.5 62.9997C150.967 79.036 127.5 80 118 77.5L117.929 77.4812C112.009 75.9232 100.97 73.0181 93.5 77.5C86 82 91 88.4997 78.5 95.9997C66 103.5 57.5 95.4997 54 88.4997C50.5 81.4997 48.5 82.4997 33.5 83.9997Z" fill="#804E4E"/>
</svg>
