<svg width="306" height="419" viewBox="0 0 306 419" fill="none" xmlns="http://www.w3.org/2000/svg">
<path d="M284.563 262.07C276.126 262.07 286.341 307.168 267.766 344.831V361.681C279.293 345.988 302.842 311.529 304.818 299.238C306.794 286.948 293 262.07 284.563 262.07Z" fill="#D7A97F"/>
<path d="M22.2255 2.98682C-4.68234 19.0064 9.91278 72.7542 22.2255 103.114L23.4272 106.667C16.7202 112.372 3.30631 125.205 3.30631 130.89C3.30631 136.574 8.71185 137.565 11.4146 137.349C7.01005 144.562 -1.13839 160.345 1.50435 165.771C4.14709 171.197 11.4146 167.601 14.718 165.125C11.3145 171.154 5.64864 184.568 10.2134 189.994C14.7781 195.42 24.1278 188.81 28.232 184.827C27.8316 191.286 26.7305 205.562 25.5292 210.988C24.0277 217.77 19.2227 225.845 17.1205 233.596C13.757 251.683 17.1205 268.801 25.5292 294.962L83.7896 403.805L211.422 401.221H228.239C242.895 401.221 257.57 393.469 263.075 389.594C266.379 385.503 272.325 373.574 269.682 358.588C271.384 341.362 272.686 314.017 259.472 283.334C252.161 266.36 227.338 236.288 215.326 220.677C215.426 217.447 215.326 209.115 214.125 201.622C212.923 194.128 210.02 186.657 208.719 183.858C212.323 185.365 220.311 187.669 223.434 184.827C226.558 181.985 220.331 161.68 216.828 151.883C218.529 152.852 222.774 154.467 226.137 153.175C229.501 151.883 227.539 139.502 226.137 133.474C267.46 112.803 271.784 65.6486 268.781 44.6551C257.97 26.8269 198.809 46.916 170.58 59.1891C155.444 45.7533 118.626 46.7006 102.109 48.8538C102.109 43.9446 82.0879 25.9226 72.0775 17.5253C48.0526 -7.53769 29.9336 1.04896 22.2255 2.98682Z" fill="#BD8B5D"/>
<ellipse cx="159.768" cy="130.567" rx="6.30654" ry="8.0744" fill="#290D0D"/>
<ellipse cx="102.409" cy="126.691" rx="6.60685" ry="8.0744" fill="#290D0D"/>
<path d="M108.433 96.331C109.334 88.9026 115.04 88.9026 126.752 85.0269C133.559 85.0269 147.953 85.9312 151.077 89.5485C154.981 94.0702 138.764 122.169 140.566 136.057C142.368 149.945 180.507 165.771 181.408 178.044C182.309 190.317 145.97 201.621 126.75 202.913C107.53 204.205 81.3881 187.733 81.9887 178.044C82.5893 168.355 119.544 137.995 119.544 132.504C119.544 127.014 107.532 103.759 108.433 96.331Z" fill="#D7A97F"/>
<path d="M141.39 152.338C140.078 148.59 131.553 150.776 127.454 152.338C126.634 152.806 124.831 154.211 124.175 156.085C123.355 158.427 126.224 161.237 128.274 162.174C130.323 163.111 136.471 162.174 138.931 160.3C141.39 158.427 143.03 157.022 141.39 152.338Z" fill="black"/>
<path d="M18.9222 31.413C16.7599 44.3321 26.0296 77.2756 30.9346 92.1325C41.5456 84.4887 63.0678 67.8447 64.269 62.4187C65.7706 55.6362 21.625 15.2642 18.9222 31.413Z" fill="#D7A97F"/>
<path d="M259.337 61.0215C253.609 55.174 222.404 72.3565 207.518 81.6787C211.722 92.9076 221.563 115.747 227.291 117.272C234.45 119.179 266.496 68.331 259.337 61.0215Z" fill="#D7A97F"/>
<path d="M74.5987 309.15C70.2512 326.99 78.7156 379.686 83.4913 403.804L151.668 401.327C155.126 384.642 162.339 348.994 163.525 339.875C165.007 328.477 154.632 277.928 141.293 261.574C127.954 245.22 105.723 252.654 98.8064 254.636C91.8899 256.619 80.033 286.849 74.5987 309.15Z" fill="#D7A97F"/>
<path d="M15.2123 313.129C13.7949 305.524 21.0001 289.136 24.7799 281.893C33.5207 281.893 56.1759 285.492 76.8703 299.888C79.5284 301.737 92.3842 328.036 92.3842 343.84C92.3842 359.644 97.6356 380.423 95.6512 391.559C93.1707 405.479 71.555 415.326 60.5699 417.023C49.5849 418.721 6.70766 418.721 0.683613 396.652C-5.34044 374.583 30.4495 370.169 29.7408 359.644C29.0321 349.119 16.9841 322.636 15.2123 313.129Z" fill="#BD8B5D"/>
<path d="M205.822 313.129C207.24 305.524 200.034 289.136 196.255 281.893C187.514 281.893 175.82 280.382 155.125 294.778C148.209 299.589 135.858 328.983 135.858 340.866C135.858 352.75 133.874 385.516 135.858 396.652C138.338 410.572 149.48 415.326 160.465 417.023C171.45 418.721 215.303 422.9 221.327 400.831C227.351 378.762 199.867 384.595 200.576 374.07C201.285 363.545 204.05 322.636 205.822 313.129Z" fill="#BD8B5D"/>
</svg>
