<svg width="347" height="388" viewBox="0 0 347 388" fill="none" xmlns="http://www.w3.org/2000/svg">
<path d="M225.015 208C182.857 230.134 166.508 323.793 177.612 351.953C325.28 335.979 311.923 242.214 308.665 224.308C303.923 198.239 287.093 160.984 275.547 145.866C278.965 175.401 245.515 197.237 225.015 208Z" fill="#F29E51"/>
<path d="M27.5323 63.8791C26.0009 43.6946 13.241 4.37679 23.5321 0.379085C33.8232 -3.61862 70.0105 24.9533 80.4242 41.3165C98.597 41.3165 140.516 36.6133 152.032 41.3165C170.205 26.815 213.532 4.37909 219.532 12.8791C225.532 21.3791 206.032 58.3791 215.032 69.8791C217.803 73.4195 222.852 91.0303 223.015 97C223.087 99.6579 242.136 105.285 242.015 107C241.951 107.895 237.238 109.462 232.719 110.984L224.515 114.5C224.225 116.866 239.891 119.574 239.515 121.5L220.015 136.5C212.497 145.5 189.787 166.726 183.532 173.879C186.032 189.879 195.426 248.002 202.532 257.879C221.699 291.379 242.932 356.279 202.532 377.879C163.634 376.997 58.5219 387.928 39.5323 370.879C26.682 358.687 -0.453854 319.779 35.5323 261.379C39.3527 247.207 56.3281 179.012 56.5323 170.879C55.9564 167.784 23.5321 147.5 18.0167 137C14.5167 135 0.47338 132.007 0.0169871 130C-0.268524 128.745 3.09312 127.133 6.47665 125.532L13.0301 121C11.3744 116.868 0.211984 114.57 0.0198431 113C-0.496433 108.782 10.318 106.975 11.0147 103C13.0301 91.5 24.2654 72.0117 27.5323 63.8791Z" fill="#FFAB5E"/>
<path d="M131.419 340.851C132.44 331.527 133.373 295.054 133.425 285.5C139.707 261.673 151.379 265.639 161.653 252.521C167.449 251.242 166.736 278.634 166.696 287.968C166.637 301.801 166.627 301.419 166.561 319.474C166.494 337.528 166.036 368.793 161.119 377.722C156.201 386.651 138.055 386.637 133.425 376.678C128.795 366.72 130.142 352.506 131.419 340.851Z" fill="#F29E51"/>
<path d="M213.015 20.4999C216.946 21.8791 206.153 41.3253 204.515 55.5C199.054 56.6492 174.148 46.1246 173.057 42.6767C171.965 39.2288 208.101 18.776 213.015 20.4999Z" fill="#E9ACAC"/>
<path d="M29.0154 14.9999C25.59 16.1338 35.0874 45.8467 36.5146 57.5C41.2726 58.4448 62.4069 48.8781 63.3584 46.0435C64.3099 43.2089 33.2972 13.5826 29.0154 14.9999Z" fill="#E9ACAC"/>
<path d="M80.9628 342.962C82.2932 322.963 75.0146 250 81.8552 253.233C91.0153 262 111.965 276.501 111.965 287.501C111.966 309.758 115.154 366.166 111.965 377.475C108.775 388.785 89.7773 385.642 84.3251 379.97C78.8779 374.304 79.299 367.974 80.9582 343.032L80.9628 342.962Z" fill="#F29E51"/>
<ellipse cx="82.0091" cy="101.336" rx="5.99442" ry="8.33639" fill="#290D0D"/>
<path d="M60.0171 131.5C44.9609 129.105 23.3695 133.2 17.0961 136.027C15.0615 140.019 51.8722 168.18 55.5171 170.5C66.5146 177.5 98.1189 183.001 121.517 183.5C140.236 183.899 171.017 180 183.017 174L218.517 139C215.465 135.507 184.097 130.303 173.517 131.5C160.292 132.997 137.141 122.056 132.563 119.062C127.985 116.069 115.778 116.568 109.674 119.062C103.57 121.557 78.8373 134.494 60.0171 131.5Z" fill="#FCE1AE"/>
<path d="M127.099 122.899C125.79 121.834 115.918 121.419 115.1 123.343C114.281 125.267 119.599 129.559 121.236 129.559C122.872 129.559 128.735 124.231 127.099 122.899Z" fill="black"/>
<ellipse cx="81.35" cy="71.8211" rx="3.62249" ry="4.70054" transform="rotate(-26.4126 81.35 71.8211)" fill="#FCE1AE"/>
<ellipse cx="3.62249" cy="4.70054" rx="3.62249" ry="4.70054" transform="matrix(0.895614 0.444832 0.444832 -0.895614 155.015 74.4199)" fill="#FCE1AE"/>
<path d="M250.515 203C249.715 200.2 240.681 202.833 232.015 204C274.015 177.6 277.015 154.5 275.515 146.5C287.915 157.7 302.181 198.667 307.515 218C302.348 214.333 296.915 212.9 294.515 212.5C291.515 212 271.015 221 267.015 221C263.015 221 251.515 206.5 250.515 203Z" fill="#FCE1AE"/>
<ellipse cx="161.009" cy="101.336" rx="5.99442" ry="8.33639" fill="#290D0D"/>
</svg>
