<svg width="191" height="244" viewBox="0 0 191 244" fill="none" xmlns="http://www.w3.org/2000/svg">
<path d="M31.8457 237.797L42.7596 155.308L50.789 158.803L42.7596 237.797H31.8457Z" fill="#8C7878"/>
<path d="M130.071 243.389L135.684 163.326H144.103L140.985 243.389H130.071Z" fill="#8C7878"/>
<path d="M167.957 195.853L178.871 92.3921L181.989 95.4351L178.871 195.853H167.957Z" fill="#8C7878"/>
<path d="M66.9258 195.853L77.8396 113.364L80.9579 115.79L77.8396 195.853H66.9258Z" fill="#8C7878"/>
<path d="M6.53589 26.255C-10.8891 44.2662 17.4335 127.661 26.0299 151.12C35.5091 184.66 134.087 184.268 145.936 175.284L189.847 100.417C196.817 86.1918 136.876 98.9192 121.542 82.4484C113.384 73.6854 104.814 5.33522 95.753 0.843193C86.692 -3.64884 18.7557 13.6241 6.53589 26.255Z" fill="#BD8B5D"/>
</svg>
