<svg width="200" height="296" viewBox="0 0 200 296" fill="none" xmlns="http://www.w3.org/2000/svg">
<path d="M166.462 178.498C140.641 164.464 24.3376 166.904 16.5023 182.93C8.55743 199.18 13.3641 212.157 16.5022 267.133L177.386 264.179C179.041 239.558 187.118 189.725 166.462 178.498Z" fill="#BD8B5D"/>
<path d="M0 249.252C16.6148 235.185 6.81912 178.834 47.2179 152.826H137.392C150.284 161.03 159.767 168.228 168.065 177.794C176.364 187.359 188.514 213.241 188.514 213.241C188.514 213.241 192.987 229.558 199.378 243.211C187.236 243.211 180.615 221.168 158.761 209.865C165.279 223.332 170.423 230.902 172.547 243.211C178.158 275.722 174.758 282.95 164.386 288.347C141.942 300.025 66.2873 296.825 50.1266 288.347C38.3946 282.192 29.5531 273.196 29.5531 243.211C29.5531 230.902 36.3543 201.548 36.3543 201.548C36.3543 201.548 24.2832 253.19 0 249.252Z" fill="#D9D9D9"/>
<path d="M61.3203 257.436C61.3203 276.356 70.9232 288.812 79.8402 295.434C113.965 297.011 146.203 294.488 146.203 294.488C146.203 294.488 151.904 268.946 151.176 257.436C150.319 243.876 144.317 226.848 134.714 218.649C125.111 210.45 89.9686 211.361 83.6128 215.023C69.3799 223.221 61.3203 238.538 61.3203 257.436Z" fill="#F5F5F5" fill-opacity="0.9"/>
<ellipse cx="93.0573" cy="108.364" rx="71.4069" ry="61.0228" fill="#E8E8E8"/>
<path d="M34.6573 102.864C30.2958 109.61 28.6124 127.905 29.0669 135.485L25.249 127.905L23.34 121.814L21.6514 113.141V107.004L23.34 93.9307L27.8397 82.6962L33.0211 75.387L38.3389 69.4314L45.4292 62.2575L54.8375 56.7079L63.4278 52.3765L74.8814 49.2634L86.2616 48.085L81.2271 40.7596C80.2201 38.5567 80.0523 34.7803 83.0731 33.9935C86.335 32.7347 87.9602 34.7161 88.6111 36.6685C89.3567 38.9049 89.3248 41.5811 89.2943 42.3987C89.5391 37.4723 90.5081 28.8256 91.7996 27.8569C95.156 25.3392 96.3485 29.0746 96.4986 30.0598C96.8342 32.2627 97.1698 35.5671 96.8342 40.917L96.5191 47.6458L98.3341 47.3684L111.969 49.2634L119.605 51.4291L126.014 54.2715L136.377 59.6858L146.194 67.2657L152.466 74.1688L158.057 82.6962L161.602 91.6297L163.647 99.4803L164.465 107.466L164.056 115.046L162.829 121.137C161.602 125.198 158.738 132.372 158.738 132.372C158.738 132.372 159.134 111.143 154.239 99.4803C150.83 91.359 144.285 86.0801 139.785 83.7791C135.831 81.7569 122.196 77.9588 113.197 84.4558C102.945 91.8568 95.0616 110.85 95.0616 110.85C95.0616 110.85 90.499 103.155 81.2271 92.0561C75.1642 84.7985 64.0055 84.3852 56.2011 86.4862C48.1563 88.6519 40.5205 93.7954 34.6573 102.864Z" fill="#414A6A" fill-opacity="0.99"/>
<ellipse cx="61.3216" cy="109.494" rx="5.2894" ry="5.65026" fill="#290D0D"/>
<ellipse cx="127.439" cy="109.494" rx="5.2894" ry="5.65026" fill="#290D0D"/>
<path d="M100.687 129.511C99.2876 128.556 88.734 128.184 87.8594 129.91C86.9848 131.635 92.6697 135.485 94.419 135.485C96.1682 135.485 102.436 130.706 100.687 129.511Z" fill="#BC8737"/>
<rect x="50" width="86.106" height="37.1947" rx="18.5974" fill="white"/>
<path d="M82.0262 15.6645V19.0965C82.0262 21.1765 81.5062 22.8165 80.4662 24.0165C79.4262 25.2005 77.9062 25.7925 75.9062 25.7925C73.8902 25.7925 72.3622 25.2005 71.3222 24.0165C70.2982 22.8165 69.7862 21.1765 69.7862 19.0965V15.6645C69.7862 13.5845 70.2982 11.9525 71.3222 10.7685C72.3622 9.58449 73.8902 8.99249 75.9062 8.99249C77.9062 8.99249 79.4262 9.58449 80.4662 10.7685C81.5062 11.9525 82.0262 13.5845 82.0262 15.6645ZM79.0742 15.6645C79.0742 14.3525 78.8182 13.3685 78.3062 12.7125C77.7942 12.0405 76.9942 11.7045 75.9062 11.7045C74.8182 11.7045 74.0182 12.0405 73.5062 12.7125C72.9942 13.3685 72.7382 14.3525 72.7382 15.6645V19.0965C72.7382 20.4085 72.9942 21.4005 73.5062 22.0725C74.0182 22.7445 74.8182 23.0805 75.9062 23.0805C76.9942 23.0805 77.7942 22.7445 78.3062 22.0725C78.8182 21.4005 79.0742 20.4085 79.0742 19.0965V15.6645ZM92.3378 15.9045C91.5858 15.9045 90.8658 16.0245 90.1778 16.2645C89.5058 16.4885 88.8578 16.8565 88.2338 17.3685V25.5525H85.4738V13.3845H88.0898V15.2565C88.9058 14.4885 89.6338 13.9445 90.2738 13.6245C90.9138 13.3045 91.6018 13.1445 92.3378 13.1445V15.9045ZM103.995 24.8565C103.163 25.1925 102.379 25.4325 101.643 25.5765C100.907 25.7205 100.211 25.7925 99.555 25.7925C97.747 25.7925 96.379 25.2805 95.451 24.2565C94.523 23.2325 94.059 21.8725 94.059 20.1765V18.7365C94.059 17.6005 94.267 16.6165 94.683 15.7845C95.099 14.9525 95.691 14.3045 96.459 13.8405C97.227 13.3765 98.131 13.1445 99.171 13.1445C100.019 13.1445 100.811 13.3205 101.547 13.6725C102.299 14.0085 102.907 14.5445 103.371 15.2805C103.851 16.0005 104.091 16.9285 104.091 18.0645C104.091 18.4005 104.067 18.7605 104.019 19.1445C103.971 19.5125 103.891 19.9045 103.779 20.3205H96.723C96.755 21.3125 97.003 22.0565 97.467 22.5525C97.931 23.0485 98.675 23.2965 99.699 23.2965C100.243 23.2965 100.803 23.2325 101.379 23.1045C101.971 22.9765 102.579 22.7845 103.203 22.5285L103.995 24.8565ZM99.171 15.4725C98.435 15.4725 97.859 15.7125 97.443 16.1925C97.043 16.6565 96.811 17.3285 96.747 18.2085H101.355C101.371 18.1285 101.379 18.0565 101.379 17.9925C101.379 17.9125 101.379 17.8405 101.379 17.7765C101.379 17.0085 101.163 16.4325 100.731 16.0485C100.299 15.6645 99.779 15.4725 99.171 15.4725ZM117.231 18.7365V20.1765C117.231 21.8725 116.767 23.2325 115.839 24.2565C114.911 25.2805 113.599 25.7925 111.903 25.7925C110.207 25.7925 108.895 25.2805 107.967 24.2565C107.039 23.2325 106.575 21.8725 106.575 20.1765V18.7365C106.575 17.0405 107.031 15.6885 107.943 14.6805C108.871 13.6565 110.191 13.1445 111.903 13.1445C113.615 13.1445 114.927 13.6565 115.839 14.6805C116.767 15.6885 117.231 17.0405 117.231 18.7365ZM114.399 18.7365C114.399 17.7605 114.183 17.0005 113.751 16.4565C113.319 15.8965 112.703 15.6165 111.903 15.6165C111.103 15.6165 110.487 15.8965 110.055 16.4565C109.623 17.0005 109.407 17.7605 109.407 18.7365V20.1765C109.407 21.1525 109.623 21.9205 110.055 22.4805C110.487 23.0405 111.103 23.3205 111.903 23.3205C112.703 23.3205 113.319 23.0405 113.751 22.4805C114.183 21.9205 114.399 21.1525 114.399 20.1765V18.7365Z" fill="black"/>
</svg>
