<svg width="293" height="428" viewBox="0 0 293 428" fill="none" xmlns="http://www.w3.org/2000/svg">
<path d="M0 353.682C24.4167 331.297 10.0212 241.623 69.3902 200.234H201.907C220.853 213.29 234.789 224.745 246.984 239.967C259.179 255.189 277.035 296.377 277.035 296.377C277.035 296.377 283.609 322.343 293 344.07C275.157 344.07 265.428 308.991 233.312 291.004C242.89 312.435 250.449 324.481 253.571 344.07C261.817 395.805 256.819 407.308 241.577 415.897C208.594 434.481 97.414 429.389 73.6647 415.897C56.4237 406.102 43.4305 391.787 43.4305 344.07C43.4305 324.481 53.4253 277.769 53.4253 277.769C53.4253 277.769 35.6859 359.95 0 353.682Z" fill="#D9D9D9"/>
<path d="M90.1172 366.706C90.1172 396.815 104.229 416.637 117.333 427.175C167.482 429.684 214.859 425.67 214.859 425.67C214.859 425.67 223.236 385.022 222.167 366.706C220.907 345.128 212.087 318.029 197.974 304.982C183.862 291.935 132.218 293.385 122.878 299.211C101.961 312.258 90.1172 336.633 90.1172 366.706Z" fill="#F5F5F5" fill-opacity="0.9"/>
<ellipse cx="136.755" cy="129.479" rx="104.938" ry="97.1092" fill="#E8E8E8"/>
<path d="M50.9306 120.727C44.521 131.463 42.0471 160.576 42.715 172.639L37.1043 160.576L34.299 150.883L31.8174 137.082V127.316L34.299 106.511L40.9116 88.6327L48.526 77.0011L56.3409 67.5235L66.7607 56.1074L80.5869 47.276L93.2109 40.3832L110.043 35.429L126.767 33.5539L119.368 21.8965C117.889 18.3909 117.642 12.3813 122.081 11.1292C126.875 9.12602 129.263 12.2791 130.22 15.3861C131.315 18.9449 131.268 23.2039 131.224 24.5048C131.583 16.6652 133.007 2.90522 134.905 1.36356C139.838 -2.64287 141.59 3.30143 141.811 4.86919C142.304 8.37482 142.797 13.6333 142.304 22.1469L141.841 32.8549L144.508 32.4134L164.546 35.429L175.768 38.8754L185.186 43.3988L200.414 52.0148L214.842 64.0771L224.059 75.0625L232.275 88.6327L237.485 102.849L240.491 115.342L241.693 128.051L241.092 140.113L239.288 149.806C237.485 156.268 233.277 167.684 233.277 167.684C233.277 167.684 233.858 133.902 226.664 115.342C221.655 102.418 212.037 94.0177 205.424 90.3559C199.613 87.1379 179.575 81.0937 166.35 91.4329C151.285 103.21 139.699 133.436 139.699 133.436C139.699 133.436 132.994 121.19 119.368 103.528C110.459 91.9782 94.0599 91.3205 82.5907 94.6639C70.7683 98.1103 59.547 106.295 50.9306 120.727Z" fill="#414A6A" fill-opacity="0.99"/>
<ellipse cx="90.1169" cy="131.277" rx="7.77317" ry="8.9916" fill="#290D0D"/>
<ellipse cx="187.281" cy="131.277" rx="7.77317" ry="8.9916" fill="#290D0D"/>
<path d="M147.967 163.132C145.911 161.611 130.401 161.019 129.116 163.766C127.831 166.512 136.185 172.639 138.756 172.639C141.326 172.639 150.538 165.033 147.967 163.132Z" fill="#BC8737"/>
</svg>
