<svg width="190" height="244" viewBox="0 0 190 244" fill="none" xmlns="http://www.w3.org/2000/svg">
<path d="M158.658 237.765L147.744 155.276L139.715 158.771L147.744 237.765H158.658Z" fill="#8C7878"/>
<path d="M60.4336 243.358L54.8208 163.295H46.4015L49.5197 243.358H60.4336Z" fill="#8C7878"/>
<path d="M22.5469 195.822L11.633 92.3604L8.51478 95.4033L11.633 195.822H22.5469Z" fill="#8C7878"/>
<path d="M123.578 195.822L112.664 113.332L109.546 115.758L112.664 195.822H123.578Z" fill="#8C7878"/>
<path d="M183.968 26.2235C201.393 44.2347 173.07 127.63 164.474 151.088C154.995 184.629 56.4166 184.236 44.5676 175.252L0.656494 100.385C-6.31352 86.1603 53.6277 98.8877 68.9618 82.4169C77.12 73.6539 85.6899 5.30373 94.7509 0.811699C103.812 -3.68033 171.748 13.5926 183.968 26.2235Z" fill="#BD8B5D"/>
</svg>
