<svg width="951" height="303" viewBox="0 0 951 303" fill="none" xmlns="http://www.w3.org/2000/svg">
<path d="M79 73.4766V301.996H128V73.4766L104.64 1.99646L79 73.4766Z" fill="white" stroke="#8C7878" stroke-opacity="0.28"/>
<path d="M149 73.4766V301.996H198V73.4766L174.64 1.99646L149 73.4766Z" fill="white" stroke="#8C7878" stroke-opacity="0.28"/>
<path d="M9 73.4766V301.996H58V73.4766L34.6395 1.99646L9 73.4766Z" fill="white" stroke="#8C7878" stroke-opacity="0.28"/>
<path d="M219 73.4766V301.996H268V73.4766L244.64 1.99646L219 73.4766Z" fill="white" stroke="#8C7878" stroke-opacity="0.28"/>
<path d="M709 73.4766V301.996H758V73.4766L734.64 1.99646L709 73.4766Z" fill="white" stroke="#8C7878" stroke-opacity="0.28"/>
<path d="M779 73.4766V301.996H828V73.4766L804.64 1.99646L779 73.4766Z" fill="white" stroke="#8C7878" stroke-opacity="0.28"/>
<path d="M849 73.4766V301.996H898V73.4766L874.64 1.99646L849 73.4766Z" fill="white" stroke="#8C7878" stroke-opacity="0.28"/>
<path d="M919 73.4766V301.996H950V15.4399L944.64 1.99646L919 73.4766Z" fill="white" stroke="#8C7878" stroke-opacity="0.28"/>
<path d="M499 73.4766V301.996H548V73.4766L524.64 1.99646L499 73.4766Z" fill="white" stroke="#8C7878" stroke-opacity="0.28"/>
<path d="M569 73.4766V301.996H618V73.4766L594.64 1.99646L569 73.4766Z" fill="white" stroke="#8C7878" stroke-opacity="0.28"/>
<path d="M639 73.4766V301.996H688V73.4766L664.64 1.99646L639 73.4766Z" fill="white" stroke="#8C7878" stroke-opacity="0.28"/>
<path d="M289 73.4766V301.996H338V73.4766L314.64 1.99646L289 73.4766Z" fill="white" stroke="#8C7878" stroke-opacity="0.28"/>
<path d="M359 73.4766V301.996H408V73.4766L384.64 1.99646L359 73.4766Z" fill="white" stroke="#8C7878" stroke-opacity="0.28"/>
<path d="M429 73.4766V301.996H478V73.4766L454.64 1.99646L429 73.4766Z" fill="white" stroke="#8C7878" stroke-opacity="0.28"/>
<rect x="0.5" y="112.874" width="949" height="15.9811" fill="white" stroke="#D9D9D9"/>
<rect x="0.5" y="217.591" width="949" height="15.9811" fill="white" stroke="#D9D9D9"/>
</svg>
